# xmcd
#
# Track frame offsets:
#	182
#	11482
#	26087
#	45622
#	57032
#	68647
#	81432
#	98182
#	112555
#	123842
#	134242
#	145760
#	161715
#	179847
#	190782
#	209725
#	225992
#	242452
#	255835
#	269085
#
# Disc length: 3795
#
# Revision: 3
# Processed by: cddbd v1.5.1PL0 Copyright (c) Steve Scherf et al.
# Submitted via: EasyCDDAExtractor 5.1.0
# Normalized: r2:TDELIM( - )
#
DISCID=160ed114
DTITLE=Various Artist - The Club Z Collection Country Gold
DYEAR=1900
DGENRE=Country
TTITLE0=Sonny James - Young Love
TTITLE1=Glen Campbell - Rhinestone Cowboy
TTITLE2=Marty Robbins - El Paso
TTITLE3=Hank Snow - I've Been Everywhere
TTITLE4=Crystal Gayle - Don't It Make My Brown Eyes Blue
TTITLE5=Porter Wagener - Carroll County Accident
TTITLE6=Johnny Cash - Boy Named Sue
TTITLE7=George Jones - If Drinkin' Don't Kill Me
TTITLE8=Johnny Horton - Battle Of New Orleans
TTITLE9=Ferlin Husky - Wings Of A Dove
TTITLE10=Ray Price - Crazy Arms
TTITLE11=The Rovers - Wasn't That A Party
TTITLE12=Willy Nelson - Red Headed Stranger
TTITLE13=Conway Twitty - Hello Darlin'
TTITLE14=Alabama - Mountain Music
TTITLE15=Merle Haggard - Someday When Things Are Good
TTITLE16=Exile - She's Too Good To Be True
TTITLE17=Janie Frickie - He's A Heartache (Looking For A Place To Happen)
TTITLE18=Tammy Wynette - D-I-V-O-R-C-E
TTITLE19=Mickey Gilley - Lonely Nights
EXTD=
EXTT0=
EXTT1=
EXTT2=
EXTT3=
EXTT4=
EXTT5=
EXTT6=
EXTT7=
EXTT8=
EXTT9=
EXTT10=
EXTT11=
EXTT12=
EXTT13=
EXTT14=
EXTT15=
EXTT16=
EXTT17=
EXTT18=
EXTT19=
PLAYORDER=
